<?xml version="1.0" standalone="no"?>
<!DOCTYPE svg PUBLIC "-//W3C//DTD SVG 20010904//EN"
 "http://www.w3.org/TR/2001/REC-SVG-20010904/DTD/svg10.dtd">
<svg version="1.0" xmlns="http://www.w3.org/2000/svg"
 width="894.000000pt" height="894.000000pt" viewBox="0 0 894.000000 894.000000"
 preserveAspectRatio="xMidYMid meet">
<metadata>
Created by potrace 1.11, written by Peter Selinger 2001-2013
</metadata>
<g transform="translate(0.000000,894.000000) scale(0.100000,-0.100000)"
fill="#000000" stroke="none">
<path d="M4437 7914 c-1 -1 -63 -5 -137 -8 -140 -6 -184 -10 -260 -20 -25 -4
-65 -9 -90 -12 -25 -3 -52 -10 -61 -15 -9 -4 -18 -6 -21 -4 -3 3 -27 0 -54 -5
-27 -6 -58 -13 -69 -15 -11 -2 -30 -6 -42 -9 -13 -4 -31 -8 -41 -10 -9 -2 -37
-9 -62 -16 -25 -7 -49 -13 -55 -15 -5 -1 -17 -5 -25 -8 -15 -5 -63 -17 -77
-18 -5 0 -13 -5 -19 -10 -6 -5 -23 -10 -38 -11 -14 -1 -26 -6 -26 -11 0 -4 -4
-6 -9 -2 -5 3 -12 1 -16 -5 -3 -5 -12 -10 -19 -10 -8 0 -31 -8 -52 -17 -22 -9
-43 -18 -49 -19 -16 -4 -142 -58 -220 -94 -38 -18 -72 -32 -74 -31 -2 2 -7 -1
-10 -6 -3 -4 -24 -17 -46 -28 -53 -27 -230 -131 -282 -167 -23 -15 -46 -28
-51 -28 -6 0 -12 -4 -14 -8 -1 -5 -28 -26 -58 -47 -47 -34 -83 -60 -125 -93
-22 -17 -152 -127 -179 -151 -74 -68 -296 -296 -296 -306 0 -3 -11 -17 -25
-32 -74 -83 -95 -109 -95 -118 0 -6 -9 -17 -20 -25 -11 -8 -20 -18 -20 -23 0
-8 -47 -75 -61 -87 -3 -3 -23 -33 -45 -68 -21 -35 -47 -75 -56 -90 -10 -15
-22 -36 -28 -47 -6 -11 -26 -47 -46 -80 -19 -33 -46 -85 -60 -115 -15 -30 -32
-58 -38 -62 -6 -4 -8 -8 -3 -8 4 0 0 -15 -10 -32 -9 -18 -18 -35 -18 -38 -1
-3 -9 -22 -18 -42 -10 -21 -17 -42 -17 -48 0 -5 -5 -10 -12 -10 -6 0 -8 -3 -5
-6 3 -4 1 -16 -5 -28 -7 -11 -12 -25 -13 -31 0 -5 -5 -19 -12 -30 -6 -11 -19
-47 -28 -80 -10 -33 -21 -64 -25 -70 -5 -5 -8 -13 -8 -18 0 -4 -10 -38 -21
-75 -12 -37 -23 -76 -26 -87 -2 -11 -9 -38 -15 -60 -18 -70 -51 -228 -56 -270
-5 -43 -11 -80 -14 -80 -1 0 -3 -20 -5 -45 -2 -25 -6 -65 -10 -90 -14 -105
-20 -453 -10 -580 3 -30 8 -89 12 -130 3 -41 7 -85 7 -97 1 -13 3 -23 7 -23 3
0 6 -17 8 -37 1 -21 3 -48 4 -60 0 -13 4 -23 7 -23 3 0 7 -14 8 -30 1 -17 9
-58 16 -90 14 -60 16 -65 22 -85 1 -5 8 -32 14 -60 11 -50 12 -57 22 -85 8
-21 41 -133 44 -145 2 -11 40 -113 57 -155 6 -14 11 -27 12 -30 25 -73 140
-312 207 -428 27 -46 48 -87 48 -91 0 -4 9 -16 20 -26 11 -10 20 -24 20 -32 0
-7 5 -13 10 -13 6 0 10 -7 10 -15 0 -8 5 -15 12 -15 6 0 9 -3 5 -6 -3 -3 -1
-11 4 -18 9 -10 65 -86 107 -145 16 -22 40 -52 121 -150 20 -25 44 -51 54 -60
9 -8 17 -21 17 -29 0 -7 5 -10 10 -7 5 3 10 2 10 -3 0 -13 149 -162 162 -162
6 0 9 -3 6 -6 -4 -3 12 -22 35 -42 23 -20 44 -39 47 -42 5 -5 145 -123 166
-139 6 -5 48 -36 95 -70 46 -34 89 -65 94 -69 6 -4 28 -19 50 -32 22 -13 42
-26 45 -29 3 -4 16 -12 30 -20 126 -73 216 -123 248 -138 20 -9 40 -21 43 -26
3 -5 9 -8 13 -7 4 1 26 -8 49 -19 60 -28 101 -44 110 -43 4 1 7 -2 7 -8 0 -6
3 -9 8 -8 7 1 20 -3 82 -30 19 -8 43 -17 54 -19 10 -2 33 -10 51 -19 19 -9 39
-17 47 -18 7 -1 36 -10 65 -20 28 -9 61 -18 72 -19 12 -1 21 -5 21 -9 0 -3 8
-7 18 -7 9 0 42 -7 72 -16 30 -8 66 -18 80 -20 14 -3 36 -7 50 -11 33 -7 68
-14 105 -19 17 -2 30 -4 30 -5 0 -5 58 -14 165 -25 36 -4 81 -10 100 -14 19
-3 70 -6 112 -6 43 0 78 -2 78 -5 0 -10 352 1 475 15 17 2 55 6 85 9 30 3 66
7 80 10 14 3 52 10 85 15 33 6 71 14 85 17 14 3 36 7 50 10 14 3 43 10 65 16
22 6 47 12 55 13 27 4 75 16 95 25 25 11 65 23 85 25 8 1 26 7 40 12 14 6 45
17 70 26 25 8 59 21 75 28 17 7 32 13 35 14 59 17 90 30 90 35 0 5 12 11 28
15 24 6 211 97 327 158 112 60 346 217 391 262 9 8 18 15 22 15 27 0 402 348
402 373 0 4 5 5 10 2 6 -3 10 -3 10 2 0 4 13 22 28 39 95 109 128 149 140 170
7 13 16 24 20 24 4 0 20 20 35 45 16 25 33 45 38 45 5 0 9 6 9 13 0 7 12 28
27 45 14 18 31 41 37 51 6 11 36 59 66 108 60 97 94 155 113 193 6 14 15 28
20 31 5 3 8 9 8 13 -1 3 14 39 33 79 19 39 36 79 38 87 2 8 6 17 9 20 4 3 23
46 42 95 19 50 38 99 42 110 5 11 9 23 10 28 2 4 4 9 5 12 1 3 4 10 5 15 1 6
4 12 5 15 1 3 3 8 4 13 1 4 5 13 9 20 5 6 6 12 2 12 -3 0 -1 9 5 20 14 26 79
270 94 355 2 11 7 35 10 53 14 73 18 98 22 127 2 17 5 44 7 60 5 34 18 159 23
220 5 58 4 402 -1 455 -3 25 -7 68 -9 95 -3 28 -7 73 -10 100 -2 28 -7 66 -11
85 -3 19 -8 46 -10 60 -3 14 -9 50 -15 80 -6 30 -13 66 -16 80 -3 14 -8 34
-11 45 -4 11 -8 27 -9 35 -1 8 -5 26 -9 40 -4 14 -7 31 -7 38 -1 6 -5 12 -9
12 -4 0 -6 8 -5 17 2 10 -3 33 -11 50 -7 18 -10 33 -6 33 4 0 2 5 -5 12 -7 7
-12 19 -12 27 0 9 -7 29 -15 44 -8 15 -10 25 -4 22 5 -4 -2 20 -17 52 -14 32
-27 63 -28 70 -1 7 -5 16 -9 19 -4 4 -7 16 -7 26 0 10 -4 18 -8 18 -5 0 -9 6
-9 13 0 12 -54 134 -93 210 -11 22 -20 45 -20 53 0 8 -4 14 -8 14 -4 0 -23 32
-41 70 -19 39 -38 70 -44 70 -6 0 -8 3 -4 6 3 4 -11 32 -33 64 -22 32 -36 60
-33 64 4 3 1 6 -5 6 -6 0 -19 16 -28 35 -9 19 -20 35 -25 35 -5 0 -9 5 -9 11
0 12 -119 172 -131 177 -5 2 -9 9 -9 16 0 6 -8 19 -17 28 -10 8 -34 35 -53 58
-127 156 -363 382 -515 495 -22 16 -42 33 -45 36 -5 6 -118 85 -148 104 -9 6
-36 24 -62 41 -25 16 -65 41 -90 55 -25 13 -47 27 -50 30 -7 9 -280 149 -280
144 0 -3 -16 4 -35 15 -20 11 -84 38 -143 61 -59 22 -120 46 -137 52 -16 7
-33 12 -37 13 -5 1 -10 3 -13 4 -3 1 -9 4 -15 5 -5 1 -11 3 -12 5 -2 1 -10 3
-18 5 -19 5 -145 40 -163 45 -78 25 -322 73 -379 74 -16 1 -28 3 -28 6 0 3
-19 7 -42 8 -73 5 -123 10 -123 12 0 2 -325 16 -328 14z"/>
</g>
</svg>
